HIERARCHY
ROOT Hips
{
  OFFSET -37.3084 97.8859 -23.143
  CHANNELS 6 Xposition Yposition Zposition Zrotation Xrotation Yrotation
  JOINT ToSpine
  {
    OFFSET -2.69724 7.43032 -0.144315
    CHANNELS 3 Zrotation Xrotation Yrotation
    JOINT Spine
    {
      OFFSET -0.0310711 10.7595 1.96963
      CHANNELS 3 Zrotation Xrotation Yrotation
      JOINT Spine1
      {
        OFFSET 13.1342 3.43533 0.764692
        CHANNELS 3 Zrotation Xrotation Yrotation
        JOINT Neck
        {
          OFFSET 29.8703 7.82586 -0.130764
          CHANNELS 3 Zrotation Xrotation Yrotation
          JOINT Head
          {
            OFFSET 9.52751 0.295786 -0.907742
            CHANNELS 3 Zrotation Xrotation Yrotation
            End Site
            {
              OFFSET 16.4037 0.713936 2.7358
            }
          }
        }
        JOINT LeftShoulder
        {
          OFFSET 27.5574 4.95586 2.47156
          CHANNELS 3 Zrotation Xrotation Yrotation
          JOINT LeftArm
          {
            OFFSET 1.20734 -0.998971 20.1238
            CHANNELS 3 Zrotation Xrotation Yrotation
            JOINT LeftForeArm
            {
              OFFSET 26.8049 -0.0536703 -0.155908
              CHANNELS 3 Zrotation Xrotation Yrotation
              JOINT LeftHand
              {
                OFFSET 26.6817 0 0.320147
                CHANNELS 3 Zrotation Xrotation Yrotation
                End Site
                {
                  OFFSET 18.6119 0 0.382219
                }
              }
            }
          }
        }
        JOINT RightShoulder
        {
          OFFSET 27.5927 4.71444 -2.65209
          CHANNELS 3 Zrotation Xrotation Yrotation
          JOINT RightArm
          {
            OFFSET 2.83739 -1.17114 -18.7564
            CHANNELS 3 Zrotation Xrotation Yrotation
            JOINT RightForeArm
            {
              OFFSET 28.839 -0.0548439 1.22491
              CHANNELS 3 Zrotation Xrotation Yrotation
              JOINT RightHand
              {
                OFFSET 26.5114 0 -0.101894
                CHANNELS 3 Zrotation Xrotation Yrotation
                End Site
                {
                  OFFSET 18.2168 0 0
                }
              }
            }
          }
        }
      }
    }
  }
  JOINT LeftUpLeg
  {
    OFFSET -4.76168 -1.9167 -10.2353
    CHANNELS 3 Zrotation Xrotation Yrotation
    JOINT LeftLeg
    {
      OFFSET 2.55951 -42.0585 -8.02213
      CHANNELS 3 Zrotation Xrotation Yrotation
      JOINT LeftFoot
      {
        OFFSET 3.16357 -42.5282 -3.95426
        CHANNELS 3 Zrotation Xrotation Yrotation
        JOINT LeftToeBase
        {
          OFFSET 0.346054 -6.02161 12.8035
          CHANNELS 3 Zrotation Xrotation Yrotation
          End Site
          {
            OFFSET 0.134235 -1.35082 5.13018
          }
        }
      }
    }
  }
  JOINT RightUpLeg
  {
    OFFSET -4.94151 -1.41743 10.6446
    CHANNELS 3 Zrotation Xrotation Yrotation
    JOINT RightLeg
    {
      OFFSET -2.56294 -42.0364 -7.94377
      CHANNELS 3 Zrotation Xrotation Yrotation
      JOINT RightFoot
      {
        OFFSET -3.0952 -42.555 -4.02241
        CHANNELS 3 Zrotation Xrotation Yrotation
        JOINT RightToeBase
        {
          OFFSET -0.0828122 -6.13587 12.8035
          CHANNELS 3 Zrotation Xrotation Yrotation
          End Site
          {
            OFFSET -0.131328 -1.35082 5.13018
          }
        }
      }
    }
  }
}
MOTION
Frames:	15
Frame Time:	0.00833333
-297.925 87.2542 -274.559 66.5348 -28.5967 -13.2963 -70.1915 0 88.8779 78.5264 65.8092 2.98124 1.58833 13.7322 7.1814 -163.127 20.3365 170.193 -152.182 58.2809 175.098 0.134916 -14.7532 -30.3671 -73.985 41.4307 -96.1942 13.7078 3.38678 -75.7232 0.420957 0.000575117 0.35866 -1.55633 4.67247 47.9512 -80.6028 -32.305 62.2904 2.42423 -21.5066 21.8464 0.58676 0.000331204 0.0646654 -74.3575 -2.40044 94.351 -3.52682 40.3462 -16.702 0.301453 -5.51341 -0.607861 14.3141 -28.4078 2.77904 -18.8435 3.9528 90.8301 -0.0503094 32.6639 -2.8837 -2.87035 -4.23489 0.721896 2.18453 -17.768 -0.660473 
-296.401 87.1975 -273.149 66.1663 -28.727 -13.1024 -70.1915 0 88.8779 78.9779 65.7259 3.3012 1.39264 13.6065 7.52535 -163.833 20.311 171.076 -152.492 58.2733 174.775 0.116897 -14.7798 -30.6644 -72.8018 41.9885 -96.4901 13.7084 4.20574 -72.505 0.420957 0.000575149 0.35866 -1.52037 4.59156 47.7804 -78.5599 -32.8711 64.5562 2.79238 -20.2839 22.4044 0.58676 0.000331205 0.0646654 -73.9328 -1.7353 93.9834 -3.69067 42.0093 -16.1848 -0.0978002 -2.23046 -0.275367 14.7699 -29.6291 1.66233 -18.4192 3.97992 89.7348 0.0609638 34.6973 -6.60206 -2.61761 -4.41386 0.71016 1.19523 -16.4894 7.22264 
-294.878 87.1256 -271.771 65.9313 -28.5713 -12.8891 -70.1915 0 88.8779 79.4088 65.5213 3.5669 1.30933 13.3975 7.68905 -164.743 20.306 171.938 -152.891 58.3205 174.605 0.0926902 -14.8287 -31.0141 -71.6139 42.2835 -97.0671 13.0187 4.83893 -69.1051 0.420957 0.000575178 0.35866 -1.5102 4.56623 47.7518 -76.2589 -33.1941 67.1345 3.38037 -19.3067 23.0579 0.58676 0.000331208 0.0646654 -73.1687 -1.8805 92.8811 -4.11898 44.3485 -15.9853 -1.20523 0.552008 0.140668 13.5215 -27.5085 1.01552 -18.0222 4.02554 88.3619 -0.360457 36.9122 -10.1079 -3.84552 -4.97442 0.822801 0.747944 -17.1269 15.8042 
-293.335 87.0123 -270.43 65.7812 -28.2233 -12.656 -70.1915 0 88.8779 79.8412 65.2379 3.79905 1.31194 13.1359 7.73393 -165.821 20.32 172.808 -153.369 58.4129 174.525 0.0624738 -14.8868 -31.4315 -70.4099 42.372 -97.8754 11.9172 5.31396 -65.5174 0.420957 0.000575208 0.35866 -1.53407 4.60745 47.9743 -73.6955 -33.3073 69.9536 4.15015 -18.5072 23.798 0.58676 0.000331211 0.0646654 -72.1117 -1.86398 91.4283 -4.71543 47.259 -16.0333 -2.77096 3.08716 0.632497 11.199 -23.1332 0.760923 -17.5961 3.65655 86.6028 -0.936749 39.324 -13.8236 -5.97725 -5.83916 1.01557 1.27512 -18.477 25.4964 
-291.78 86.8696 -269.115 65.6903 -27.9871 -12.4482 -70.1915 0 88.8779 80.6982 65.0216 3.66605 1.24813 12.9632 7.65186 -166.934 20.3165 173.666 -153.946 58.5222 174.635 0.0272434 -14.9498 -31.9022 -69.2174 42.3293 -98.6993 10.7825 5.6895 -61.9011 0.420957 0.000575237 0.35866 -1.58283 4.69622 48.3522 -71.009 -33.3407 72.8814 4.81829 -17.8126 24.4452 0.58676 0.000331214 0.0646654 -70.8549 -1.26513 90.448 -5.21524 50.5348 -16.0025 -4.37015 5.22597 1.10545 8.77395 -18.4853 1.0259 -17.3449 2.80209 84.9935 -1.18319 41.5843 -16.9778 -8.37711 -6.62519 1.23426 2.40745 -19.27 33.6006 
-290.251 86.7473 -267.824 65.6384 -28.1675 -12.3073 -70.1915 0 88.8779 82.3976 65.0154 2.8406 0.966838 13.0212 7.43416 -167.944 20.2592 174.491 -154.643 58.6189 175.036 -0.017045 -15.0477 -32.4032 -68.0597 42.2431 -99.3274 9.96683 6.10256 -58.4237 0.420957 0.000575264 0.35866 -1.64588 4.82065 48.7123 -68.3111 -33.4467 75.8371 5.10587 -17.1515 24.8234 0.58676 0.000331216 0.0646654 -69.5002 -0.674166 90.1713 -5.4769 53.9761 -15.4606 -5.5585 6.81999 1.46208 7.17122 -15.5429 1.92162 -17.4206 2.13748 83.9676 -0.887273 43.4671 -18.6172 -10.4176 -6.94983 1.42349 2.88681 -19.1958 37.1992 
-288.786 86.6951 -266.557 65.6256 -28.9319 -12.243 -70.1915 0 88.8779 85.3982 65.2809 0.983644 0.35966 13.3844 7.03653 -168.817 20.1117 175.303 -155.555 58.689 175.928 -0.0753391 -15.2105 -32.9123 -66.9801 42.1083 -99.6391 9.61724 6.70309 -55.1455 0.420957 0.000575289 0.35866 -1.7107 4.97166 48.8811 -65.4021 -33.6703 78.9825 4.80572 -16.6534 24.7097 0.58676 0.000331216 0.0646654 -68.0712 -0.433003 90.238 -5.73917 57.6223 -13.89 -6.19778 7.70221 1.67024 6.81371 -15.1218 3.86744 -17.8488 2.50579 83.5715 -0.235323 44.993 -17.6546 -12.0719 -6.49296 1.58469 2.04483 -18.5141 34.113 
-287.414 86.735 -265.339 65.6621 -30.0898 -12.2369 -70.1915 0 88.8779 89.4368 65.6975 -1.7152 -0.461099 13.965 6.47598 -169.62 19.9025 176.105 -156.644 58.7404 177.203 -0.158705 -15.4757 -33.4491 -65.9565 41.895 -99.7635 9.49572 7.45207 -51.9807 0.420957 0.000575313 0.35866 -1.7763 5.16208 48.8213 -62.2732 -33.8522 82.3418 4.12792 -16.301 24.2592 0.58676 0.000331214 0.0646654 -66.5177 -0.330578 90.4858 -6.44485 61.5273 -11.2701 -6.50592 7.99481 1.78114 7.2269 -16.0375 6.68944 -18.5253 3.79535 83.7101 0.357679 46.2966 -14.604 -13.6352 -5.53155 1.74148 0.838271 -17.0933 26.412 
-286.108 86.8376 -264.161 65.7421 -31.4092 -12.2879 -70.1915 0 88.8779 93.8356 66.1422 -4.77766 -1.315 14.6611 5.83552 -170.372 19.6934 176.845 -157.729 58.7828 178.498 -0.265589 -15.8146 -34.0191 -64.9077 41.6582 -99.8715 9.37275 8.21774 -48.8762 0.420957 0.000575335 0.35866 -1.84655 5.39407 48.6228 -59.3161 -33.9142 85.6644 3.41573 -15.8059 23.8661 0.58676 0.000331213 0.0646654 -64.852 -0.082089 90.8923 -7.81129 65.5107 -7.83674 -6.57014 7.98353 1.82126 7.99893 -17.2805 9.61989 -19.3775 5.43981 84.3567 0.777945 47.3809 -10.9259 -14.9623 -4.57862 1.87121 0.217385 -14.8209 17.5923 
-284.823 86.9754 -262.974 65.8594 -32.6581 -12.3915 -70.1915 0 88.8779 97.8391 66.528 -7.65518 -2.02846 15.3707 5.19929 -171.095 19.5473 177.475 -158.63 58.8392 179.454 -0.37984 -16.1593 -34.5779 -63.7549 41.4509 -100.131 9.05143 8.82254 -45.7727 0.420957 0.000575355 0.35866 -1.91448 5.64469 48.3031 -56.9345 -33.8657 88.6957 3.00318 -14.8865 23.9271 0.58676 0.000331212 0.0646654 -63.087 0.353933 91.2919 -9.8223 69.4225 -4.007 -6.48201 7.9539 1.81787 8.47893 -17.9027 11.8215 -20.3092 6.92687 85.1193 1.0566 48.3967 -8.2114 -15.9022 -4.14702 1.95088 0.291279 -12.6066 10.9437 
-283.512 87.1207 -261.732 66.0748 -33.8469 -12.4924 -70.1915 0 88.8779 101.562 66.8459 -10.4563 -2.58207 16.1118 4.53561 -171.867 19.4828 177.991 -159.331 58.9322 179.971 -0.481386 -16.4447 -35.0792 -62.0439 41.1842 -100.901 8.33624 8.88097 -42.5849 0.420957 0.000575373 0.35866 -1.97366 5.89019 47.8795 -55.0285 -33.8542 91.5594 2.88049 -13.1153 24.5349 0.58676 0.000331213 0.0646654 -61.2598 0.808003 91.7966 -12.4501 73.3708 0.32323 -6.16913 7.88239 1.74839 8.36954 -17.6924 12.9926 -21.3192 8.37882 85.7716 1.309 49.5239 -6.98361 -16.3593 -4.44309 1.96448 0.499154 -11.0712 6.99285 
-282.157 87.2414 -260.412 66.3667 -35.0748 -12.6141 -70.1915 0 88.8779 105.305 67.1307 -13.3893 -3.0521 16.923 3.81554 -172.656 19.4676 178.416 -159.916 59.0507 -179.758 -0.568875 -16.683 -35.532 -59.9727 40.8463 -101.974 7.46311 8.52438 -39.3763 0.420957 0.000575389 0.35866 -2.02308 6.1406 47.283 -53.4344 -33.8668 94.3937 2.83933 -10.7868 25.5001 0.58676 0.000331214 0.0646654 -59.356 1.28015 92.4964 -16.9203 77.3387 6.53849 -5.61552 7.64989 1.60831 8.0082 -17.1696 13.5928 -22.4772 9.94462 86.6798 1.57951 50.6745 -6.43518 -16.4307 -5.17011 1.92777 0.708088 -9.86925 4.02903 
-280.784 87.3604 -259.043 66.6003 -36.2412 -12.8692 -70.1915 0 88.8779 108.517 67.4179 -15.9936 -3.42116 17.7341 3.13002 -173.322 19.4884 178.748 -160.355 59.1747 -179.66 -0.649496 -16.9007 -35.953 -58.4176 40.6377 -102.696 6.79945 8.42484 -36.2894 0.420957 0.000575403 0.35866 -2.0629 6.40465 46.5288 -52.4829 -33.7905 96.9215 2.92427 -8.69696 26.7708 0.58676 0.000331216 0.0646654 -57.3046 1.699 93.3047 -25.801 80.9774 16.8936 -4.9974 7.3986 1.45203 7.54982 -16.5313 13.8765 -23.7244 11.3348 87.8353 1.84219 51.7058 -6.21024 -16.2526 -6.08612 1.86507 0.888554 -8.93214 1.76815 
-279.414 87.533 -257.652 66.632 -37.2428 -13.3738 -70.1915 0 88.8779 110.642 67.7719 -17.8034 -3.68062 18.4756 2.5723 -173.726 19.5318 178.985 -160.617 59.2829 -179.658 -0.711911 -17.0574 -36.3054 -58.234 40.79 -102.441 6.5593 9.37162 -33.4447 0.420957 0.000575417 0.35866 -2.09148 6.65425 45.7592 -52.5236 -33.5857 98.8156 3.25616 -7.60495 28.2589 0.58676 0.000331218 0.0646654 -55.0337 2.1093 94.0548 -43.8849 83.7736 35.8769 -4.48891 7.27086 1.33362 7.15149 -15.9694 14.0971 -24.9689 12.2851 89.0453 2.03047 52.4679 -5.9205 -15.9593 -6.94916 1.8004 1.07379 -8.16186 -0.0580218 
-278.069 87.8144 -256.266 66.3074 -38.0904 -14.2815 -70.1915 0 88.8779 111.279 68.2999 -18.5066 -3.8521 19.1652 2.18013 -173.812 19.6003 179.11 -160.648 59.3669 -179.79 -0.743553 -17.1135 -36.5517 -59.9603 41.3938 -100.831 6.65407 11.937 -30.8618 0.420957 0.000575429 0.35866 -2.11027 6.85981 45.1166 -53.9965 -33.3197 99.8628 4.07742 -7.8928 29.969 0.58676 0.000331221 0.0646654 -52.4237 2.60333 94.7681 -76.0731 85.129 68.1642 -4.11555 7.26851 1.26022 6.77848 -15.4213 14.3694 -26.0699 12.8527 90.0864 2.13675 52.9588 -5.55663 -15.6376 -7.7869 1.73346 1.22345 -7.69245 -1.46748 
